<svg xmlns="http://www.w3.org/2000/svg" viewBox="0 0 1920 1080" role="img" aria-label="Startup wallpaper">
  <defs>
    <linearGradient id="bg" x1="0" y1="0" x2="0" y2="1">
      <stop offset="0%" stop-color="#0a1328" />
      <stop offset="50%" stop-color="#060b17" />
      <stop offset="100%" stop-color="#02050c" />
    </linearGradient>
    <radialGradient id="halo" cx="52%" cy="44%" r="40%">
      <stop offset="0%" stop-color="#2563eb" stop-opacity="0.42" />
      <stop offset="60%" stop-color="#1d4ed8" stop-opacity="0.12" />
      <stop offset="100%" stop-color="#000000" stop-opacity="0" />
    </radialGradient>
    <linearGradient id="horizon" x1="0" y1="0" x2="1" y2="0">
      <stop offset="0%" stop-color="#172554" stop-opacity="0.15" />
      <stop offset="50%" stop-color="#0ea5e9" stop-opacity="0.35" />
      <stop offset="100%" stop-color="#172554" stop-opacity="0.15" />
    </linearGradient>
    <pattern id="grid" width="38" height="38" patternUnits="userSpaceOnUse">
      <path d="M38 0H0V38" fill="none" stroke="#94a3b8" stroke-opacity="0.08" />
    </pattern>
  </defs>

  <rect width="1920" height="1080" fill="url(#bg)" />
  <rect width="1920" height="1080" fill="url(#halo)" />
  <rect width="1920" height="1080" fill="url(#grid)" />

  <rect x="0" y="610" width="1920" height="2" fill="url(#horizon)" />

  <g fill="#0b1222" fill-opacity="0.78">
    <rect x="120" y="640" width="110" height="300" />
    <rect x="250" y="560" width="150" height="380" />
    <rect x="430" y="600" width="95" height="340" />
    <rect x="550" y="520" width="200" height="420" />
    <rect x="780" y="580" width="130" height="360" />
    <rect x="950" y="500" width="220" height="440" />
    <rect x="1200" y="550" width="160" height="390" />
    <rect x="1390" y="610" width="125" height="330" />
    <rect x="1540" y="540" width="190" height="400" />
  </g>

  <g fill="#1d4ed8" fill-opacity="0.32">
    <rect x="272" y="590" width="4" height="32" />
    <rect x="313" y="574" width="4" height="48" />
    <rect x="597" y="548" width="4" height="74" />
    <rect x="1024" y="530" width="4" height="92" />
    <rect x="1086" y="558" width="4" height="64" />
    <rect x="1268" y="580" width="4" height="42" />
    <rect x="1625" y="564" width="4" height="58" />
  </g>
</svg>
